<svg width="16" height="17" viewBox="0 0 16 17" fill="none" xmlns="http://www.w3.org/2000/svg">
<path d="M7.40438 8.01159L0.216875 4.98528C0.113906 4.9419 0 5.01753 0 5.12928V13.2199C0 13.4243 0.124469 13.6082 0.314312 13.6841L7.28572 16.4727C7.38834 16.5137 7.5 16.4381 7.5 16.3276V8.15559C7.5 8.09271 7.46231 8.03599 7.40438 8.01159Z" fill="#47FD42"/>
<path d="M8.0607 7.15181L15.008 4.22662C15.1329 4.17406 15.1363 3.99831 15.0135 3.94103L8.21151 0.766778C8.07748 0.704246 7.92267 0.704246 7.78863 0.766778L0.986666 3.94103C0.863885 3.99831 0.867228 4.17406 0.992103 4.22662L7.93945 7.15181C7.9782 7.16815 8.02195 7.16815 8.0607 7.15181Z" fill="#47FD42"/>
<path d="M8.5 8.15559V16.3276C8.5 16.4381 8.61166 16.5137 8.71428 16.4727L15.6857 13.6841C15.8755 13.6082 16 13.4243 16 13.2199V5.12928C16 5.01753 15.8861 4.9419 15.7831 4.98528L8.59562 8.01159C8.53769 8.03599 8.5 8.09271 8.5 8.15559Z" fill="#47FD42"/>
</svg>
