<svg width="21" height="20" viewBox="0 0 21 20" fill="none" xmlns="http://www.w3.org/2000/svg">
<path d="M20.7407 8.31152L16.147 12.7895L17.2318 19.114C17.279 19.3906 17.1655 19.6701 16.9383 19.8353C16.81 19.9289 16.6574 19.9761 16.5047 19.9761C16.3874 19.9761 16.2694 19.9481 16.1618 19.8913L10.4818 16.9053L4.80246 19.8906C4.55467 20.0219 4.25305 20.0005 4.0259 19.8345C3.79876 19.6694 3.68519 19.3898 3.73239 19.1133L4.81721 12.7887L0.222752 8.31152C0.0221593 8.11535 -0.0508507 7.82183 0.0361713 7.5556C0.123193 7.28938 0.354023 7.09395 0.63205 7.05338L6.98096 6.13154L9.82024 0.377771C10.0688 -0.125924 10.8947 -0.125924 11.1433 0.377771L13.9825 6.13154L20.3315 7.05338C20.6095 7.09395 20.8403 7.28864 20.9273 7.5556C21.0144 7.82257 20.9413 8.11461 20.7407 8.31152Z" fill="#46FD42"/>
</svg>
