<svg width="22" height="22" viewBox="0 0 22 22" fill="none" xmlns="http://www.w3.org/2000/svg">
<path d="M1.0746 0.89502C0.572398 0.89502 0.165283 1.30213 0.165283 1.80434C0.165283 2.30654 0.572398 2.71365 1.0746 2.71365H2.69255C2.82494 2.71365 2.95398 2.75531 3.06138 2.83273C3.16878 2.91014 3.2491 3.01939 3.29096 3.14499L6.28897 12.1407C6.4221 12.5401 6.43903 12.9702 6.33692 13.3786L6.09005 14.3678C5.72783 15.8167 6.85566 17.2627 8.34914 17.2627H19.261C19.7632 17.2627 20.1703 16.8556 20.1703 16.3534C20.1703 15.8512 19.7632 15.4441 19.261 15.4441H8.34914C7.99507 15.4441 7.76776 15.1536 7.85363 14.8101L8.0398 14.0665C8.07135 13.9405 8.14409 13.8287 8.24647 13.7488C8.34886 13.6689 8.47501 13.6255 8.60489 13.6255H18.3516C18.7432 13.6257 19.0909 13.3753 19.2148 13.0039L21.639 5.72932C21.8354 5.14028 21.3968 4.53201 20.7759 4.53229H6.12558C5.99318 4.53229 5.86414 4.49063 5.75674 4.41322C5.64933 4.33581 5.56901 4.22656 5.52714 4.10096L4.66569 1.51662C4.54179 1.14522 4.19408 0.894815 3.80255 0.89502H1.0746ZM7.43982 18.1721C6.43542 18.1721 5.62119 18.9863 5.62119 19.9907C5.62119 20.9951 6.43542 21.8093 7.43982 21.8093C8.44423 21.8093 9.25846 20.9951 9.25846 19.9907C9.25846 18.9863 8.44423 18.1721 7.43982 18.1721ZM18.3516 18.1721C17.3472 18.1721 16.533 18.9863 16.533 19.9907C16.533 20.9951 17.3472 21.8093 18.3516 21.8093C19.356 21.8093 20.1703 20.9951 20.1703 19.9907C20.1703 18.9863 19.356 18.1721 18.3516 18.1721Z" fill="black"/>
</svg>
