<svg width="44" height="44" viewBox="0 0 44 44" fill="none" xmlns="http://www.w3.org/2000/svg">
<path d="M31.652 23.2004C30.6777 24.1746 25.9341 28.9185 24.8768 29.9759C24.2055 30.6471 23.1171 30.6469 22.446 29.9759C21.7748 29.3046 21.7748 28.2163 22.446 27.5451L26.2725 23.7188H13.5208C12.5715 23.7188 11.8021 22.9493 11.8021 22C11.8021 21.0507 12.5715 20.2812 13.5208 20.2812H26.2725L22.4461 16.455C21.7748 15.7837 21.7748 14.6954 22.4461 14.0242C23.1174 13.3531 24.2057 13.353 24.8768 14.0242C25.8112 14.9587 30.7364 19.884 31.6505 20.7982C32.3071 21.4704 32.3009 22.536 31.652 23.2004ZM44 12.7507V31.2493C44 37.1257 40.015 40.11 39.7566 40.4761C37.4844 42.7486 34.463 44 31.2493 44H12.7507C9.537 44 6.51561 42.7485 4.24334 40.476C3.98793 40.1141 0 37.1263 0 31.2493V12.7507C0 6.87431 3.98501 3.89005 4.24342 3.52387C6.51561 1.25151 9.537 0 12.7507 0H31.2493C34.463 0 37.4844 1.25151 39.7567 3.52395C40.0121 3.88592 44 6.87371 44 12.7507ZM40.5625 12.7507C40.5625 8.44448 37.5873 6.31804 37.3259 5.95461C35.7028 4.33142 33.5448 3.4375 31.2493 3.4375H12.7507C10.4552 3.4375 8.29718 4.33134 6.67408 5.95452C6.40329 6.3311 3.4375 8.42162 3.4375 12.7507V31.2493C3.4375 35.5555 6.41274 37.682 6.67408 38.0454C8.29718 39.6687 10.4552 40.5625 12.7507 40.5625H31.2493C33.5448 40.5625 35.7028 39.6687 37.3259 38.0455C37.5967 37.6689 40.5625 35.5784 40.5625 31.2493V12.7507Z" fill="url(#paint0_linear_13_293)"/>
<defs>
<linearGradient id="paint0_linear_13_293" x1="22" y1="0" x2="22" y2="44" gradientUnits="userSpaceOnUse">
<stop stop-color="#47FD42"/>
<stop offset="1" stop-color="#0D5A0A"/>
</linearGradient>
</defs>
</svg>
