<svg width="14" height="14" viewBox="0 0 14 14" fill="none" xmlns="http://www.w3.org/2000/svg">
<path d="M13.8693 4.78162C13.0847 3.76464 12.2973 2.75038 11.51 1.73612C11.4362 1.64591 11.3377 1.57483 11.2284 1.53382C10.3727 1.21396 9.51701 0.905035 8.65858 0.596111C8.64764 0.593377 8.63671 0.58791 8.62577 0.585176C8.54922 0.563305 8.46721 0.607046 8.44261 0.68086C8.22663 1.29324 7.64706 1.70058 6.99914 1.70058C6.35121 1.70058 5.77164 1.29051 5.55567 0.68086C5.52833 0.601579 5.44358 0.560571 5.3643 0.585176C4.48127 0.905035 3.59824 1.22763 2.7152 1.55022C2.63592 1.58303 2.56484 1.63497 2.5129 1.70332C1.71188 2.73124 0.913601 3.7619 0.118053 4.79256C-0.0487118 5.00853 -0.0405103 5.12882 0.153593 5.31472C0.667555 5.79861 1.18152 6.28251 1.69821 6.7664C1.86498 6.92496 2.00987 6.92496 2.17937 6.7664C2.42542 6.53402 2.6742 6.29891 2.92024 6.06653C3.07607 5.9189 3.23463 5.77401 3.41233 5.60725C3.41507 5.66466 3.4178 5.68653 3.4178 5.7084V12.9914C3.4178 13.303 3.50528 13.3905 3.81968 13.3905H10.2059C10.4821 13.3905 10.5805 13.2948 10.5805 13.0187C10.5805 10.6184 10.5805 8.21807 10.5805 5.81775V5.60178C10.6461 5.66192 10.6844 5.69746 10.7226 5.733C11.0862 6.07747 11.4526 6.4192 11.8162 6.76093C11.9857 6.91949 12.1306 6.91949 12.2973 6.76366C12.8086 6.28251 13.3198 5.80135 13.831 5.32019C14.0442 5.12336 14.0497 5.014 13.8693 4.78162Z" fill="#47FD42"/>
</svg>
