<svg width="33" height="34" viewBox="0 0 33 34" fill="none" xmlns="http://www.w3.org/2000/svg">
<path d="M32.2615 17.0993C32.2615 8.17461 25.0405 0.941406 16.1307 0.941406C7.22103 0.941406 0 8.17461 0 17.0993C0 26.0241 7.22103 33.2573 16.1307 33.2573C16.2253 33.2573 16.3198 33.2573 16.4143 33.251V20.6781H12.9487V16.6323H16.4143V13.6532C16.4143 10.2007 18.5189 8.31978 21.5938 8.31978C23.0682 8.31978 24.3347 8.42708 24.7002 8.47757V12.0879H22.583C20.9133 12.0879 20.5856 12.8831 20.5856 14.0508V16.626H24.5868L24.0638 20.6718H20.5856V32.6324C27.3278 30.6947 32.2615 24.4777 32.2615 17.0993Z" fill="#46FD42"/>
</svg>
