<svg width="22" height="22" viewBox="0 0 22 22" fill="none" xmlns="http://www.w3.org/2000/svg">
<path d="M16.3879 16.0768C15.9824 16.0777 15.5808 15.9983 15.2062 15.8432C14.8315 15.6881 14.4913 15.4604 14.2052 15.1731L11.0527 12.0206C10.9411 11.9146 10.793 11.8555 10.6391 11.8555C10.4852 11.8555 10.3371 11.9146 10.2255 12.0206L7.06104 15.1851C6.77498 15.4725 6.43479 15.7004 6.06014 15.8555C5.68549 16.0106 5.28381 16.0899 4.87832 16.0888H4.25684L8.24997 20.082C9.49595 21.328 11.518 21.328 12.764 20.082L16.7677 16.0768H16.3879ZM4.87832 4.92607C5.70397 4.92607 6.47858 5.24733 7.06104 5.82978L10.2255 8.99427C10.2799 9.04874 10.3445 9.09195 10.4156 9.12143C10.4867 9.15092 10.5629 9.16609 10.6399 9.16609C10.7168 9.16609 10.793 9.15092 10.8641 9.12143C10.9352 9.09195 10.9998 9.04874 11.0542 8.99427L14.2067 5.84179C14.4925 5.55459 14.8325 5.32686 15.2069 5.17175C15.5812 5.01664 15.9826 4.93722 16.3879 4.93808H16.7677L12.764 0.934436C12.1653 0.336105 11.3535 0 10.507 0C9.66054 0 8.84872 0.336105 8.24997 0.934436L4.25684 4.92757L4.87832 4.92607Z" fill="#46FD42"/>
<path d="M20.0805 8.24962L17.6606 5.82972C17.6063 5.85203 17.5482 5.86375 17.4895 5.86425H16.3891C15.8202 5.86425 15.2632 6.09543 14.8624 6.49775L11.71 9.65023C11.5698 9.79116 11.4031 9.90299 11.2195 9.97931C11.036 10.0556 10.8391 10.0949 10.6404 10.0949C10.4416 10.0949 10.2447 10.0556 10.0612 9.97931C9.87763 9.90299 9.71097 9.79116 9.57077 9.65023L6.40628 6.48424C6.00029 6.07991 5.45107 5.85224 4.87808 5.85074H3.52702C3.47101 5.85029 3.41556 5.83961 3.36339 5.81921L0.934484 8.24962C-0.311495 9.4956 -0.311495 11.5177 0.934484 12.7652L3.36339 15.1941C3.41498 15.1733 3.46992 15.1621 3.52552 15.1611H4.87808C5.44853 15.1611 6.00397 14.9314 6.40628 14.5291L9.56927 11.3631C9.85788 11.0883 10.2411 10.935 10.6396 10.935C11.0381 10.935 11.4213 11.0883 11.71 11.3631L14.8624 14.5155C15.2632 14.9179 15.8202 15.1475 16.3891 15.1475H17.4895C17.5495 15.1475 17.6081 15.1626 17.6606 15.1836L20.0805 12.7637C21.3265 11.5177 21.3265 9.4956 20.0805 8.24962Z" fill="#46FD42"/>
</svg>
