<svg width="26" height="20" viewBox="0 0 26 20" fill="none" xmlns="http://www.w3.org/2000/svg">
<path fill-rule="evenodd" clip-rule="evenodd" d="M5.90918 2.36364C5.90918 1.05824 6.96742 0 8.27282 0H23.6365C24.9419 0 26.0001 1.05824 26.0001 2.36364V11.5227C26.0001 12.8281 24.9419 13.8863 23.6365 13.8863H22.4546V11.5227H23.6365V2.36364H8.27282V3.84084H5.90918V2.36364Z" fill="#46FD42"/>
<path fill-rule="evenodd" clip-rule="evenodd" d="M2.36364 5.909C1.05824 5.909 0 6.96723 0 8.27267V9.0113H20.0909V8.27267C20.0909 6.96723 19.0327 5.909 17.7273 5.909H2.36364ZM0 17.4318V11.3749H20.0909V17.4318C20.0909 18.7371 19.0327 19.7954 17.7273 19.7954H2.36364C1.05824 19.7954 0 18.7371 0 17.4318ZM3.84091 16.1022H9.15909V13.7386H3.84091V16.1022Z" fill="#46FD42"/>
</svg>
