<svg width="18" height="16" viewBox="0 0 18 16" fill="none" xmlns="http://www.w3.org/2000/svg">
<path d="M14.3044 11.753H7.56544C6.59363 11.753 5.73196 11.1154 5.46897 10.202L3.19117 2.48376C3.11024 2.20428 2.84125 2.01246 2.53405 2.01246H0.749276C0.334926 2.01246 0 1.67678 0 1.26318C0 0.849584 0.334926 0.513908 0.749276 0.513908H2.53405C3.50586 0.513908 4.36678 1.15154 4.62978 2.06491L5.05612 3.51101H16.5163C16.9838 3.51101 17.4274 3.73355 17.7024 4.10669C17.9751 4.47683 18.0538 4.93988 17.9182 5.37746L16.3724 10.2837C16.0697 11.1694 15.2403 11.753 14.3044 11.753Z" fill="#47FD42"/>
<path d="M8.2422 15.4994C7.41575 15.4994 6.74365 14.8273 6.74365 14.0009C6.74365 13.1744 7.41575 12.5023 8.2422 12.5023C9.06866 12.5023 9.74076 13.1744 9.74076 14.0009C9.74076 14.8273 9.06866 15.4994 8.2422 15.4994Z" fill="#47FD42"/>
<path d="M13.4868 15.4994C12.6604 15.4994 11.9883 14.8273 11.9883 14.0009C11.9883 13.1744 12.6604 12.5023 13.4868 12.5023C14.3133 12.5023 14.9854 13.1744 14.9854 14.0009C14.9854 14.8273 14.3133 15.4994 13.4868 15.4994Z" fill="#47FD42"/>
</svg>
