<svg width="26" height="26" viewBox="0 0 26 26" fill="none" xmlns="http://www.w3.org/2000/svg">
<path d="M13.8159 26C13.6138 26 13.4201 25.9197 13.2773 25.7768L10.8296 23.3292C10.5322 23.0318 10.5322 22.5494 10.8296 22.252L11.9469 21.1346C12.3218 20.7598 12.2761 20.1401 11.8535 19.823L10.0953 18.5048C9.90351 18.3609 9.79063 18.1352 9.79063 17.8954V15.9185L8.57995 15.3132C8.32188 15.1842 8.15887 14.9204 8.15887 14.6319V13.5491L6.23208 12.9069C5.92104 12.8032 5.71122 12.5121 5.71122 12.1843V10.9691L3.55002 12.0496C3.25675 12.1964 2.90261 12.1388 2.67079 11.9069L0.223133 9.4593C0.0802852 9.31651 0 9.12273 0 8.92072C0 8.71871 0.0802344 8.52493 0.223133 8.38213L2.44766 6.15756V4.29546C2.44766 3.6349 2.80485 3.02197 3.3798 2.69585C3.94794 2.37395 4.64618 2.37826 5.20919 2.7055C5.26901 2.7384 5.64982 2.98215 6.09375 2.73069C6.36121 2.57946 6.52702 2.29493 6.52702 1.98771V1.57775C6.52702 1.2499 6.73679 0.958827 7.04788 0.855132L9.49553 0.03928C9.89473 -0.0937161 10.326 0.121952 10.4591 0.521042L11.1013 2.44783H12.6844L14.0931 1.03916C14.2544 0.87778 14.4795 0.797495 14.7068 0.819788C14.9339 0.842233 15.139 0.965378 15.2655 1.15525L16.7767 3.42192C17.8086 3.89099 22.6014 6.0695 24.6359 6.99398C25.4647 7.37082 26 8.20237 26 9.11242C26 9.71839 25.7641 10.2879 25.3359 10.7161L23.5523 12.4997V15.4477C23.5523 15.6497 23.4721 15.8435 23.3292 15.9863L20.0657 19.2498C19.9228 19.3927 19.7291 19.473 19.5271 19.473C18.1706 19.473 17.0252 20.5681 17.0252 21.974V22.7906C17.0252 22.9926 16.945 23.1864 16.8021 23.3292L14.3544 25.7768C14.2116 25.9197 14.0179 26 13.8159 26Z" fill="#46FD42"/>
</svg>
