<svg width="32" height="33" viewBox="0 0 32 33" fill="none" xmlns="http://www.w3.org/2000/svg">
<path d="M22.9656 19.265L22.954 19.366C20.1212 17.8902 19.825 17.6936 19.4591 18.2672C19.2053 18.6644 18.4659 19.5652 18.243 19.8318C18.0176 20.0944 17.7934 20.1146 17.4109 19.9328C17.0244 19.7309 15.7838 19.3067 14.3153 17.9333C13.1714 16.8629 12.4036 15.55 12.1769 15.1461C11.7994 14.4648 12.5891 14.3678 13.3079 12.9459C13.4367 12.6632 13.371 12.441 13.2757 12.2404C13.1791 12.0384 12.41 10.0591 12.088 9.27003C11.7788 8.48368 11.4606 8.58332 11.2223 8.58332C10.4803 8.516 9.93795 8.52677 9.46002 9.04651C7.38085 11.4352 7.90516 13.8992 9.68417 16.5195C13.1804 21.3022 15.0431 22.1828 18.4491 23.4054C19.3689 23.7111 20.2076 23.668 20.871 23.5683C21.6104 23.4458 23.1472 22.5975 23.468 21.6483C23.7965 20.699 23.7965 19.9113 23.6999 19.7295C23.6046 19.5477 23.3521 19.4468 22.9656 19.265Z" fill="#46FD42"/>
<path d="M26.8471 4.64461C16.9421 -5.36381 0.549636 1.89508 0.543195 16.0143C0.543195 18.8365 1.25042 21.5888 2.59789 24.0192L0.413086 32.3162L8.57389 30.0918C18.7572 35.8413 31.325 28.2067 31.3301 16.0224C31.3301 11.746 29.7327 7.72132 26.8278 4.69712L26.8471 4.64461ZM28.7563 15.978C28.7485 26.2557 17.9546 32.6744 9.41767 27.4285L8.95391 27.1403L4.12313 28.4531L5.41778 23.5452L5.1099 23.0403C-0.202678 14.2006 5.90086 2.64777 15.9643 2.64777C19.3833 2.64777 22.5922 4.04138 25.0089 6.56604C27.4243 9.06915 28.7563 12.4232 28.7563 15.978Z" fill="#46FD42"/>
</svg>
