<svg width="34" height="34" viewBox="0 0 34 34" fill="none" xmlns="http://www.w3.org/2000/svg">
<path d="M17.081 8.77588C12.4909 8.77588 8.7749 12.5022 8.7749 17.096C8.7749 21.6938 12.495 25.4161 17.081 25.4161C21.6711 25.4161 25.3872 21.6898 25.3872 17.096C25.3872 12.4982 21.6671 8.77588 17.081 8.77588ZM17.081 22.4964C14.1015 22.4964 11.6897 20.0793 11.6897 17.096C11.6897 14.1128 14.1028 11.6956 17.081 11.6956C20.0593 11.6956 22.4723 14.1128 22.4723 17.096C22.4737 20.0793 20.0606 22.4964 17.081 22.4964Z" fill="#46FD42"/>
<path d="M23.7495 0.991016C20.7713 0.851852 13.3945 0.858607 10.4136 0.991016C7.79415 1.11397 5.4836 1.74764 3.62086 3.61352C0.507746 6.73188 0.905653 10.9338 0.905653 17.0962C0.905653 23.4032 0.554956 27.5079 3.62086 30.5789C6.74611 33.7081 11.0017 33.2987 17.0809 33.2987C23.3179 33.2987 25.4706 33.3028 27.676 32.4475C30.6744 31.2815 32.9378 28.5969 33.159 23.7748C33.2993 20.7902 33.2912 13.4023 33.159 10.4163C32.8919 4.72413 29.8422 1.27205 23.7495 0.991016ZM28.4637 28.5158C26.4229 30.56 23.5917 30.3776 17.0418 30.3776C10.2976 30.3776 7.59318 30.4776 5.61983 28.4955C3.34704 26.2297 3.75844 22.5912 3.75844 17.0746C3.75844 9.60974 2.99365 4.23368 10.4729 3.84996C12.1914 3.78916 12.6972 3.76889 17.0229 3.76889L17.0836 3.80943C24.2715 3.80943 29.911 3.05551 30.2496 10.5461C30.3264 12.2552 30.344 12.7686 30.344 17.0949C30.3426 23.7721 30.4694 26.4972 28.4637 28.5158Z" fill="#46FD42"/>
<path d="M25.7164 10.3924C26.7883 10.3924 27.6573 9.52193 27.6573 8.44815C27.6573 7.37437 26.7883 6.50391 25.7164 6.50391C24.6444 6.50391 23.7754 7.37437 23.7754 8.44815C23.7754 9.52193 24.6444 10.3924 25.7164 10.3924Z" fill="#46FD42"/>
</svg>
