<svg width="17" height="16" viewBox="0 0 17 16" fill="none" xmlns="http://www.w3.org/2000/svg">
<path d="M15.6688 7.04916L9.01336 0.393693C8.48844 -0.131231 7.6371 -0.131231 7.11217 0.393693C6.58725 0.918617 6.58725 1.76996 7.11217 2.29489L12.8164 7.99909L7.11217 13.7033C6.58725 14.2282 6.58725 15.0795 7.11217 15.6045C7.6371 16.1294 8.48844 16.1294 9.01336 15.6045L15.6688 8.94902C16.1937 8.4254 16.1937 7.57409 15.6688 7.04916ZM7.6664 6.64614L2.38255 1.07717C1.85161 0.51829 0.99164 0.51829 0.460703 1.07717C-0.0702342 1.63606 -0.0702342 2.54269 0.460703 3.10226L4.78399 7.65868L0.460703 12.2151C-0.0702342 12.774 -0.0702342 13.6813 0.460703 14.2402C0.99164 14.7991 1.85161 14.7991 2.38255 14.2402L7.6664 8.67123C8.19734 8.11234 8.19734 7.20571 7.6664 6.64614Z" fill="#121215"/>
</svg>
