<svg width="10" height="10" viewBox="0 0 10 10" fill="none" xmlns="http://www.w3.org/2000/svg">
<path d="M7.06003 1.21192C5.44413 -0.403974 2.8252 -0.403974 1.21121 1.21192C-0.402784 2.82782 -0.404688 5.44675 1.21121 7.06265C2.62536 8.47679 4.80843 8.6519 6.41481 7.59176L8.32762 9.50457C8.65689 9.82433 9.1822 9.81671 9.50196 9.48744C9.816 9.16579 9.816 8.6519 9.50196 8.33024L7.58724 6.41362C8.64928 4.80724 8.47418 2.62417 7.06003 1.21192ZM6.04557 6.04629C4.99115 7.10071 3.27628 7.10071 2.22186 6.04629C1.16743 4.99186 1.16743 3.277 2.22186 2.22257C3.27628 1.16815 4.99115 1.16815 6.04557 2.22257C7.1 3.277 7.1 4.99377 6.04557 6.04629Z" fill="white"/>
</svg>
