<svg width="59" height="59" viewBox="0 0 59 59" fill="none" xmlns="http://www.w3.org/2000/svg">
<rect width="59" height="59" rx="17" fill="url(#paint0_linear_13_720)"/>
<path d="M40.9682 31.3641C39.861 32.4712 34.4706 37.8619 33.269 39.0635C32.5063 39.8263 31.2694 39.8261 30.5068 39.0635C29.744 38.3007 29.744 37.064 30.5068 36.3013L34.8551 31.9531H20.3645C19.2858 31.9531 18.4114 31.0787 18.4114 30C18.4114 28.9213 19.2858 28.0469 20.3645 28.0469H34.8551L30.5069 23.6988C29.7441 22.936 29.7441 21.6993 30.5069 20.9366C31.2697 20.1739 32.5064 20.1738 33.2691 20.9366C34.331 21.9985 39.9277 27.5954 40.9665 28.6343C41.7126 29.3981 41.7056 30.6091 40.9682 31.3641ZM55 19.4895V40.5105C55 47.1883 50.4716 50.5795 50.1779 50.9956C47.5959 53.5779 44.1625 55 40.5105 55H19.4895C15.8375 55 12.4041 53.5778 9.82197 50.9955C9.53174 50.5842 5 47.189 5 40.5105V19.4895C5 12.8117 9.52842 9.42051 9.82207 9.00439C12.4041 6.42217 15.8375 5 19.4895 5H40.5105C44.1625 5 47.5959 6.42217 50.178 9.00449C50.4683 9.41582 55 12.811 55 19.4895ZM51.0938 19.4895C51.0938 14.596 47.7128 12.1796 47.4158 11.7666C45.5714 9.92207 43.119 8.90625 40.5105 8.90625H19.4895C16.881 8.90625 14.4286 9.92197 12.5842 11.7665C12.2765 12.1944 8.90625 14.57 8.90625 19.4895V40.5105C8.90625 45.404 12.2872 47.8204 12.5842 48.2334C14.4286 50.078 16.881 51.0938 19.4895 51.0938H40.5105C43.119 51.0938 45.5714 50.078 47.4158 48.2335C47.7235 47.8056 51.0938 45.43 51.0938 40.5105V19.4895Z" fill="url(#paint1_linear_13_720)"/>
<defs>
<linearGradient id="paint0_linear_13_720" x1="29.5" y1="0" x2="29.5" y2="59" gradientUnits="userSpaceOnUse">
<stop stop-color="#47FD42" stop-opacity="0.2"/>
<stop offset="1" stop-color="#47FD42" stop-opacity="0"/>
</linearGradient>
<linearGradient id="paint1_linear_13_720" x1="30" y1="5" x2="30" y2="55" gradientUnits="userSpaceOnUse">
<stop stop-color="#47FD42"/>
<stop offset="1" stop-color="#0D5A0A"/>
</linearGradient>
</defs>
</svg>
